<?xml version="1.0" encoding="utf-8"?>
<!-- Generator: Adobe Illustrator 19.0.0, SVG Export Plug-In . SVG Version: 6.00 Build 0)  -->
<svg version="1.1" id="Layer_1" xmlns="http://www.w3.org/2000/svg" xmlns:xlink="http://www.w3.org/1999/xlink" x="0px" y="0px"
	 viewBox="0 0 329 329" style="enable-background:new 0 0 329 329;" xml:space="preserve">
<style type="text/css">
	.st0{fill:#7D39C4;}
	.st1{clip-path:url(#XMLID_38_);fill:#8661FF;}
</style>
<path id="XMLID_2_" class="st0" d="M329,164.5c0,90.8-73.7,164.5-164.5,164.5H0l107.1-85.7c16.8,13.7,34,18.7,57.4,18.7
	c53.8,0,97.5-43.7,97.5-97.5c0-53.9-43.7-97.5-97.5-97.5S67,110.6,67,164.5c0,17.4,2.6,30.2,10.7,44.3l-46.5,52
	C11.6,233.8,0,200.5,0,164.5c0-1.5,0-3,0.1-4.6L0,160V0h164l0,0c0.2,0,0.3,0,0.5,0C255.3,0,329,73.6,329,164.5z M201.7,164.7
	c0-20.5-16.6-37.2-37.2-37.2s-37.2,16.6-37.2,37.2c0,20.5,16.6,37.2,37.2,37.2S201.7,185.2,201.7,164.7z"/>
<g id="XMLID_35_">
	<defs>
		<path id="XMLID_30_" d="M329,164.5c0,90.8-73.7,164.5-164.5,164.5H0l107.1-85.7c16.8,13.7,34,18.7,57.4,18.7
			c53.8,0,97.5-43.7,97.5-97.5c0-53.9-43.7-97.5-97.5-97.5S67,110.6,67,164.5c0,17.4,2.6,30.2,10.7,44.3l-46.5,52
			C11.6,233.8,0,200.5,0,164.5c0-1.5,0-3,0.1-4.6L0,160V0h164l0,0c0.2,0,0.3,0,0.5,0C255.3,0,329,73.6,329,164.5z M201.7,164.7
			c0-20.5-16.6-37.2-37.2-37.2s-37.2,16.6-37.2,37.2c0,20.5,16.6,37.2,37.2,37.2S201.7,185.2,201.7,164.7z"/>
	</defs>
	<clipPath id="XMLID_38_">
		<use xlink:href="#XMLID_30_"  style="overflow:visible;"/>
	</clipPath>
	<path id="XMLID_1_" class="st1" d="M339,154.5c0,90.8-73.7,164.5-164.5,164.5H10l107.1-85.7c16.8,13.7,34,18.7,57.4,18.7
		c53.8,0,97.5-43.7,97.5-97.5c0-53.9-43.7-97.5-97.5-97.5S77,100.6,77,154.5c0,17.4,2.6,30.2,10.7,44.3l-46.5,52
		C21.6,223.8,10,190.5,10,154.5c0-1.5,0-3,0.1-4.6L10,150V-10h164l0,0c0.2,0,0.3,0,0.5,0C265.3-10,339,63.6,339,154.5z M211.7,154.7
		c0-20.5-16.6-37.2-37.2-37.2s-37.2,16.6-37.2,37.2c0,20.5,16.6,37.2,37.2,37.2S211.7,175.2,211.7,154.7z"/>
</g>
</svg>
