<?xml version="1.0" encoding="utf-8"?>
<!-- Generator: Adobe Illustrator 19.0.0, SVG Export Plug-In . SVG Version: 6.00 Build 0)  -->
<svg version="1.1" id="Layer_2" xmlns="http://www.w3.org/2000/svg" xmlns:xlink="http://www.w3.org/1999/xlink" x="0px" y="0px"
	 viewBox="-315 116 1476.8 329" style="enable-background:new -315 116 1476.8 329;" xml:space="preserve">
<style type="text/css">
	.st0{fill:url(#SVGID_1_);}
	.st1{fill:#383644;}
</style>
<linearGradient id="SVGID_1_" gradientUnits="userSpaceOnUse" x1="-178.4576" y1="265.0407" x2="-319.4576" y2="569.0407">
	<stop  offset="0" style="stop-color:#8661FF"/>
	<stop  offset="1" style="stop-color:#EE52F7"/>
</linearGradient>
<path class="st0" d="M-173.8,165.5c-23.5,0-45.7,5.7-65.2,15.8l-10.9-17.1c5.1-5.1,8.2-12.1,8.2-19.9c0-15.6-12.6-28.2-28.2-28.2
	c-15.6,0-28.2,12.6-28.2,28.2s12.6,28.2,28.2,28.2c2.4,0,4.6-0.3,6.8-0.9l11,17.3c-0.1,0-0.2,0.1-0.2,0.1
	c-37.8,25.1-62.6,67.7-62.6,116.2c0,33.9,12.2,64.9,32.4,89.1c8.7,10.4-22.7,50.3-22.7,50.3s71-12.7,80.8-8.9
	c15.7,6,32.8,9.3,50.7,9.3c78,0,141.2-62.6,141.2-139.7S-95.9,165.5-173.8,165.5z M-196,304.7c-19.7,2.6-38.1-13.8-41-36.5
	c-3-22.7,10.6-43.2,30.3-45.8c19.7-2.6,38.1,13.8,41,36.5C-162.8,281.7-176.3,302.2-196,304.7z M-99.9,295.1
	c-18.6,2.4-36-13-38.8-34.6c-2.8-21.5,10-40.9,28.6-43.4c18.6-2.4,36,13,38.8,34.6C-68.5,273.2-81.3,292.6-99.9,295.1z"/>
<g>
	<path class="st1" d="M87.1,359.9V238l-2.4-19.2h111.4c19.4,0,33.9,3.8,43.6,11.5c9.7,7.7,14.5,19.7,14.5,36v45.8
		c0,16.6-4.8,28.8-14.4,36.4c-9.6,7.6-24.2,11.4-43.7,11.4H87.1z M133.9,326.8h55c12.3,0,18.6-5.7,18.7-17v-41.5
		c0-4.6-1.4-8.6-4.1-11.9c-2.7-3.3-7.6-4.9-14.6-4.9h-55V326.8z"/>
	<path class="st1" d="M307.2,242.1c-16.2,0-24.2-6.9-24.2-20.6c0-7.7,2-13,6.1-16c4.1-3,10.1-4.4,18.1-4.4c8.5,0,14.7,1.5,18.6,4.4
		c3.9,3,5.9,8.3,5.9,16C331.7,235.2,323.5,242.1,307.2,242.1z M285.1,359.9V252.4h43.7v107.5H285.1z"/>
	<path class="st1" d="M387.6,359.9c-10.7,0-18.3-0.6-22.8-1.7c-4.5-1.1-6.7-2.2-6.7-3.4l9.6-25.2c1.9,0.5,7.6,1,17.2,1.6
		c9.5,0.6,23.4,0.8,41.6,0.8h17c4,0,6.5-0.4,7.6-1.3c1-0.9,1.6-2.4,1.6-4.7c0-2.7-0.6-4.4-1.8-5.2s-3.6-1.1-7.3-1.1h-48.7
		c-11.7,0-20.7-2.2-27.1-6.6c-6.4-4.4-9.6-12.3-9.6-23.6v-4.8c0-5.9,0.8-11.3,2.4-16.2c1.6-4.9,5-8.8,10.3-11.8
		c5.3-3,13.3-4.4,24-4.4h71c9.6,0,16.4,0.6,20.4,1.7c4,1.1,6,2.2,6,3.4l-2.4,25.4c-2.6-0.5-9-1-19.3-1.6
		c-10.3-0.6-24.5-0.8-42.6-0.8h-17c-4,0-6.5,0.4-7.6,1.3c-1,0.9-1.6,2.4-1.6,4.4c0,2.1,0.5,3.6,1.6,4.4c1,0.9,3.6,1.3,7.6,1.3h49.7
		c12.5,0,21.7,2.7,27.6,8.2c5.9,5.4,8.9,13,8.9,22.8v4.6c0,5.8-0.7,11.1-2.2,16c-1.4,4.9-4.7,8.8-9.8,11.9c-5.1,3-13.3,4.6-24.5,4.6
		H387.6z"/>
	<path class="st1" d="M565.2,359.9c-12.2,0-20.5-2.6-25-7.7c-4.5-5.1-6.7-12.8-6.7-23v-46.6h-19.7v-30.2h10.1c2.7,0,4.9-0.5,6.6-1.6
		c1.7-1,2.8-2.9,3.2-5.6l4.6-25.7h39.4v32.9h40.1v30.2h-40.1v37.2c0,4,1,6.6,2.9,7.9c1.9,1.3,4.8,1.9,8.6,1.9h24l4.8,27.8
		c-3.4,0.5-8.5,1-15.4,1.6c-6.9,0.6-14.4,0.8-22.6,0.8H565.2z"/>
	<path class="st1" d="M637.2,359.9V252.4h34.1l9.1,4.8c7.4-4.8,17.1-7.2,29.3-7.2c8,0,15,0.8,21.1,2.5c6.1,1.7,11,3.5,14.8,5.4
		c3.8,1.9,6.1,3.3,7.1,4.1l-12,31.2c-1.6-1.1-4.6-2.6-9-4.6c-4.4-1.9-9.6-3.7-15.5-5.4c-5.9-1.7-12.2-2.5-18.7-2.5h-2.6
		c-4.5,0-7.9,0.8-10.3,2.3c-2.4,1.5-3.6,4.8-3.6,10v67H637.2z"/>
	<path class="st1" d="M795.6,359.9c-14.1,0-24.2-2.6-30.2-7.9c-6.1-5.3-9.1-14.1-9.1-26.4c0-11.4,3.2-19.6,9.5-24.7
		c6.3-5.1,16.3-7.7,29.9-7.7h7.4c9,0,17.5,0.3,25.7,1c8.2,0.6,15.2,1.3,21.1,1.9v-3.8c0-2.2-0.5-4.4-1.4-6.5
		c-1-2.1-4.3-3.1-10.1-3.1h-12c-17.4,0-30.9,0.3-40.3,0.8c-9.4,0.6-15.3,1.1-17.5,1.6l-2.6-25.4c0-1.6,2.8-2.9,8.4-4
		c5.6-1,13.3-1.8,23-2.4c9.8-0.6,20.9-0.8,33.4-0.8h24c10.6,0,18.6,1.6,24.2,4.7c5.6,3.1,9.4,7.3,11.5,12.6
		c2.1,5.3,3.1,11.4,3.1,18.2v72h-34.1l-9.4-4.8c-3.8,0.8-10,1.8-18.4,3c-8.4,1.2-18,1.8-28.9,1.8H795.6z M809.5,331.6h33.1
		c3.5,0,5.6-0.3,6.2-1c0.6-0.6,1-2.6,1-6v-8.4h-40.3c-3,0-5.3,0.6-6.7,1.7c-1.4,1.1-2.2,3.3-2.2,6.5c0,3,0.7,5,2.2,5.9
		C804.2,331.2,806.5,331.6,809.5,331.6z"/>
	<path class="st1" d="M957.8,359.9c-10.6,0-18.7-1.5-24.4-4.6c-5.7-3-9.6-7.2-11.6-12.6c-2.1-5.4-3.1-11.6-3.1-18.6v-36.2
		c0-6.4,1.1-12.3,3.2-17.6c2.2-5.4,6-9.7,11.6-13c5.6-3.3,13.7-4.9,24.2-4.9h30.7c18.4,0,31.9,0.8,40.6,2.4
		c8.6,1.6,13.5,3.2,14.6,4.8l-7.2,25.4c-3.4-0.3-9.4-0.8-18.2-1.4c-8.8-0.6-18.5-1-29-1h-14.6c-4.2,0-7.1,0.8-8.9,2.4
		c-1.8,1.6-2.6,4-2.6,7.2v27.8c0,3.2,0.8,5.6,2.4,7.2c1.6,1.6,4.6,2.4,9.1,2.4h12.2c11.8,0,22-0.3,30.6-0.8
		c8.6-0.6,14.8-1.1,18.8-1.6l14.4,22.8c0,2.2-4,4.4-11.9,6.6s-19.7,3.2-35.4,3.2H957.8z"/>
	<path class="st1" d="M1109.3,359.9c-12.2,0-20.5-2.6-25-7.7c-4.5-5.1-6.7-12.8-6.7-23v-46.6h-19.7v-30.2h10.1
		c2.7,0,4.9-0.5,6.6-1.6c1.7-1,2.8-2.9,3.2-5.6l4.6-25.7h39.4v32.9h40.1v30.2h-40.1v37.2c0,4,1,6.6,2.9,7.9c1.9,1.3,4.8,1.9,8.6,1.9
		h24l4.8,27.8c-3.4,0.5-8.5,1-15.4,1.6c-6.9,0.6-14.4,0.8-22.6,0.8H1109.3z"/>
</g>
</svg>
