<?xml version="1.0" encoding="utf-8"?>
<svg version="1.1"
  id="Layer_2"
  xmlns="http://www.w3.org/2000/svg"
  xmlns:xlink="http://www.w3.org/1999/xlink"
  viewBox="-315 116 329 329"
  style="enable-background:new -315 116 329 329;"
  xml:space="preserve">

  <style type="text/css">
    .faceFill { fill: url(#SVGID_1_); }
    .cavity { fill: #0b0b0b; opacity: 0.92; }

    /* Make transforms reliable in SVG */
    .eyesRig, .blink {
      transform-box: fill-box;
      transform-origin: center;
    }

    /* 16s loop timeline (seamless):
       - Start LEFT
       - Hold 5s, blink
       - Wait 3s
       - Move RIGHT quickly, blink
       - Wait 3s
       - Move back LEFT quickly, repeat
    */

    @keyframes watch {
      /* start/end LEFT */
      0%, 50%, 100% { transform: translate(-7px, 0px); }

      /* move to RIGHT quickly */
      50.5% { transform: translate(7px, 0px); }

      /* hold RIGHT */
      70.5% { transform: translate(7px, 0px); }

      /* move back to LEFT quickly */
      71% { transform: translate(-7px, 0px); }
    }

    @keyframes blink {
      0%, 100% { transform: scaleY(1); }

      /* blink at ~5.0s */
      30.8% { transform: scaleY(1); }
      31.25% { transform: scaleY(0.08); }
      31.7% { transform: scaleY(1); }

      /* blink at ~8.3s */
      51.4% { transform: scaleY(1); }
      51.875% { transform: scaleY(0.08); }
      52.35% { transform: scaleY(1); }
    }

    .eyesRig { animation: watch 12s linear infinite; }
    .blink  { animation: blink 12s linear infinite; }
  </style>

  <defs>
    <!-- Illustrator gradient (kept EXACT from your 2nd SVG) -->
    <linearGradient id="SVGID_1_" gradientUnits="userSpaceOnUse"
      x1="-151.2314" y1="265.0407" x2="-292.2314" y2="569.0407">
      <stop offset="0" style="stop-color:#8661FF"/>
      <stop offset="1" style="stop-color:#EE52F7"/>
    </linearGradient>

    <!-- OUTER face path ONLY (first subpath from Illustrator path) -->
    <path id="facePath" d="M-146.6,165.5c-23.5,0-45.7,5.7-65.2,15.8l-10.9-17.1c5.1-5.1,8.2-12.1,8.2-19.9c0-15.6-12.6-28.2-28.2-28.2
      c-15.6,0-28.2,12.6-28.2,28.2s12.6,28.2,28.2,28.2c2.4,0,4.6-0.3,6.8-0.9l11,17.3c-0.1,0-0.2,0.1-0.2,0.1
      c-37.8,25.1-62.6,67.7-62.6,116.2c0,33.9,12.2,64.9,32.4,89.1c8.7,10.4-22.7,50.3-22.7,50.3s71-12.7,80.8-8.9
      c15.7,6,32.8,9.3,50.7,9.3c78,0,141.2-62.6,141.2-139.7S-68.6,165.5-146.6,165.5z"/>

    <!-- Eye hole paths (copied EXACT from the Illustrator path’s subpaths) -->
    <path id="eyeLeft" d="M-168.8,304.7c-19.7,2.6-38.1-13.8-41-36.5
      c-3-22.7,10.6-43.2,30.3-45.8c19.7-2.6,38.1,13.8,41,36.5
      C-135.5,281.7-149.1,302.2-168.8,304.7z"/>

    <path id="eyeRight" d="M-72.7,295.1
      c-18.6,2.4-36-13-38.8-34.6c-2.8-21.5,10-40.9,28.6-43.4c18.6-2.4,36,13,38.8,34.6
      C-41.2,273.2-54.1,292.6-72.7,295.1z"/>

    <!-- Mask: white shows face, black cuts holes (animated eyes) -->
    <mask id="faceWithHoles">
      <use href="#facePath" xlink:href="#facePath" fill="white"/>

      <g class="eyesRig">
        <g class="blink">
          <use href="#eyeLeft"  xlink:href="#eyeLeft"  fill="black"/>
          <use href="#eyeRight" xlink:href="#eyeRight" fill="black"/>
        </g>
      </g>
    </mask>
  </defs>

  <!-- Face with animated holes -->
  <use href="#facePath" xlink:href="#facePath" class="faceFill" mask="url(#faceWithHoles)"/>
</svg>
